<svg xmlns="http://www.w3.org/2000/svg"  viewBox="0 0 64 64" width="64px" height="64px"><radialGradient id="95TPPYHI3kYWU33lMwmlba" cx="31.766" cy="1198.957" r="23.517" gradientTransform="translate(0 -1170)" gradientUnits="userSpaceOnUse"><stop offset="0" stop-color="#f4e9c3"/><stop offset=".219" stop-color="#f8eecd"/><stop offset=".644" stop-color="#fdf4dc"/><stop offset="1" stop-color="#fff6e1"/></radialGradient><path fill="url(#95TPPYHI3kYWU33lMwmlba)" d="M63.92,51.25C63.57,52.88,62.05,54,60.38,54H50.5c-0.83,0-1.5,0.67-1.5,1.5s0.67,1.5,1.5,1.5	h2c1.79,0,3.25,1.35,3.46,3.08c0.02,0.13,0.04,0.26,0.04,0.39v0.03c0,0.05-0.01,0.1-0.02,0.15c0,0.1-0.01,0.2-0.03,0.3	C55.73,62.67,54.28,64,52.5,64h-42c-2,0-3.6-1.67-3.5-3.69C7.1,58.42,8.8,57,10.7,57h1.8c0.83,0,1.5-0.67,1.5-1.5S13.33,54,12.5,54	H3c-1.71,0-3.08-1.42-3-3.16C0.09,49.22,1.54,48,3.16,48H12V33H6c-2.33,0-4.22-2.03-3.98-4.41C2.23,26.51,4.1,25,6.19,25H9.5	c2,0,3.6-1.67,3.5-3.69C12.9,19.42,11.2,18,9.3,18H4c-2.33,0-4.22-2.03-3.98-4.41C0.23,11.51,2.1,10,4.19,10H15	c1.21,0,2.16-1.06,1.97-2.32C16.82,6.69,15.89,6,14.89,6H12.5c-1.46,0-2.62-1.24-2.49-2.73C10.12,1.96,11.32,1,12.64,1H48.5	c1.46,0,2.62,1.24,2.49,2.73C50.88,5.04,49.68,6,48.36,6H43.5C42.67,6,42,6.67,42,7.5S42.67,9,43.5,9h15c1.46,0,2.62,1.24,2.49,2.73	C60.88,13.04,59.68,14,58.36,14H58c-1.21,0-2.16,1.06-1.97,2.32c0.15,0.99,1.08,1.68,2.08,1.68h1.7c2.09,0,3.96,1.51,4.17,3.59	C64.22,23.97,62.33,26,60,26h-6c-1.71,0-3.08,1.42-3,3.16c0.09,1.62,1.54,2.84,3.16,2.84H59c1.85,0,3.32,1.69,2.94,3.6	c-0.29,1.43-1.63,2.4-3.08,2.4H52c0,3,0,6,0.14,9h8.36C62.67,47,64.39,49.01,63.92,51.25z"/><linearGradient id="95TPPYHI3kYWU33lMwmlbb" x1="31.999" x2="31.999" y1="54.617" y2="9.395" gradientUnits="userSpaceOnUse"><stop offset="0" stop-color="#7363de"/><stop offset=".342" stop-color="#7880e5"/><stop offset=".775" stop-color="#7da0ec"/></linearGradient><path fill="url(#95TPPYHI3kYWU33lMwmlbb)" d="M51.681,19.802c0,0-0.138-0.129-0.372-0.334c-0.131-3.183-0.607-6.291-1.619-9.282	c-0.358-1.059-1.501-1.663-2.567-1.326c-4.264,1.347-7.913,3.995-11.228,7.348c-2.756-0.156-6.119-0.153-8.549-0.01	c-3.345-3.535-6.915-6.208-10.876-7.392c-1.063-0.318-2.202,0.312-2.513,1.377c-0.792,2.717-1.247,5.994-1.546,9.529	c-0.055,0.052-0.093,0.088-0.093,0.088s-6.057,6.734-7.312,23.886c-0.048,0.65,0.17,1.312,0.624,1.78	c5.036,5.195,11.736,6.293,14.27,6.525c0.664,0.061,1.304-0.246,1.677-0.802c0.635-0.944,0.191-2.22-0.846-2.688	c-1.052-0.68-1.672-1.021-2.937-2.242C17.654,46.118,17.833,45.89,18,46c3.963,2.613,9.971,2.644,13.985,2.659	C35.998,48.675,42.007,48.239,46,46c0.167-0.11,0.347,0.118,0.205,0.26c-0.73,0.795-1.742,1.51-2.927,2.225	c-1.011,0.61-1.49,1.761-0.856,2.705c0.374,0.556,1.013,0.863,1.677,0.802c2.534-0.232,9.233-1.33,14.27-6.525	c0.454-0.468,0.671-1.13,0.624-1.78C57.739,26.536,51.681,19.802,51.681,19.802z"/><linearGradient id="95TPPYHI3kYWU33lMwmlbc" x1="31.457" x2="31.457" y1="47.321" y2="37.852" gradientUnits="userSpaceOnUse"><stop offset="0" stop-color="#fd9480"/><stop offset=".007" stop-color="#fd9480"/><stop offset=".576" stop-color="#fb91a5"/><stop offset=".989" stop-color="#fa8fbb"/><stop offset="1" stop-color="#fa8fbb"/></linearGradient><path fill="url(#95TPPYHI3kYWU33lMwmlbc)" d="M44.353,44.257c0,2.168-5.65,1.021-12.62,1.021s-13.172,1.147-13.172-1.021	s6.202-5.532,13.172-5.532S44.353,42.089,44.353,44.257z"/><path fill="#fbf2d7" d="M26.675,32c-1.314,1.362-3.492,2.255-5.96,2.255c-0.488,0-0.964-0.036-1.426-0.103	c-0.133,0.5-0.225,1.021-0.225,1.573c0,2.907,1.997,5.264,4.46,5.264s4.461-2.357,4.461-5.264C27.985,34.27,27.484,32.953,26.675,32	z"/><path fill="#fbf2d7" d="M36.249,32c1.314,1.362,3.492,2.255,5.96,2.255c0.488,0,0.964-0.036,1.426-0.103	c0.133,0.5,0.225,1.021,0.225,1.573c0,2.907-1.997,5.264-4.46,5.264s-4.461-2.357-4.461-5.264C34.939,34.27,35.44,32.953,36.249,32z"/><path fill="#faf0d3" d="M34.688,46.361c-0.948,0-1.855-0.342-2.561-0.952c-0.705,0.61-1.612,0.952-2.561,0.952 c-2.122,0-3.848-1.651-3.848-3.681c0-0.209,0.019-0.414,0.054-0.614c0.049-0.272,0.311-0.455,0.579-0.405 c0.271,0.048,0.453,0.307,0.405,0.579c-0.025,0.144-0.038,0.291-0.038,0.44c0,1.478,1.277,2.681,2.848,2.681 c0.839,0,1.636-0.359,2.185-0.984c0.191-0.216,0.561-0.216,0.752,0c0.549,0.625,1.346,0.984,2.185,0.984 c1.57,0,2.848-1.203,2.848-2.681c0-0.273,0.219-0.543,0.491-0.547c0.004,0,0.007,0,0.01,0c0.27,0,0.488,0.167,0.497,0.438 c0,0.005,0.002,0.105,0.002,0.11C38.536,44.709,36.811,46.361,34.688,46.361z"/><path fill="#faf0d3" d="M37.894,25.66c-1.188,0-1.809-1.954-1.809-3.883c0-0.52,0.043-1.023,0.127-1.497 c0.049-0.272,0.305-0.455,0.58-0.405c0.271,0.048,0.453,0.308,0.404,0.58c-0.074,0.416-0.111,0.861-0.111,1.322 c0,1.892,0.601,2.883,0.809,2.883s0.809-0.991,0.809-2.883c0-0.181-0.006-0.358-0.017-0.531c-0.018-0.275,0.191-0.513,0.467-0.531 c0.273-0.008,0.514,0.191,0.531,0.467c0.013,0.193,0.019,0.392,0.019,0.594C39.702,23.706,39.081,25.66,37.894,25.66z"/><path fill="#faf0d3" d="M14.58,31.42c-0.858,0-1.506-0.98-1.506-2.279c0-0.276,0.224-0.5,0.5-0.5s0.5,0.224,0.5,0.5 c0,0.831,0.359,1.279,0.506,1.279s0.505-0.448,0.505-1.279c0-0.276,0.224-0.5,0.5-0.5s0.5,0.224,0.5,0.5 C16.085,30.44,15.438,31.42,14.58,31.42z"/><path fill="#faf0d3" d="M26.798,23.925c-1.048,0-1.596-1.584-1.596-3.149c0-0.185,0.008-0.367,0.021-0.542 c0.021-0.276,0.267-0.476,0.537-0.46c0.275,0.021,0.48,0.262,0.459,0.537c-0.012,0.151-0.018,0.306-0.018,0.465 c0,1.37,0.437,2.103,0.603,2.15c0.131-0.042,0.521-0.651,0.581-1.846c0.015-0.275,0.215-0.491,0.524-0.474 c0.275,0.014,0.488,0.249,0.474,0.525C28.313,22.522,27.796,23.925,26.798,23.925z"/><path fill="#faf0d3" d="M48.043,37.245c-1.036,0-1.5-1.747-1.5-3.479c0-0.276,0.224-0.5,0.5-0.5s0.5,0.224,0.5,0.5 c0,1.372,0.314,2.203,0.499,2.434c0.148-0.188,0.421-0.8,0.487-1.953c0.016-0.266,0.235-0.471,0.499-0.471 c0.009,0,0.019,0,0.029,0.001c0.275,0.016,0.485,0.252,0.47,0.528C49.445,35.726,49.012,37.245,48.043,37.245z"/></svg>